<svg
            width="60"
            height="65"
            viewBox="0 0 60 65"
            fill="none"
            xmlns="http://www.w3.org/2000/svg"
          >
            <path
              d="M45 17.604C45 8.64348 38.2712 1.354 30 1.354C21.7287 1.354 15 8.64348 15 17.604C15 25.6396 20.4175 32.3143 27.5 33.6089V54.1665H32.5V33.6089C39.5825 32.3143 45 25.6396 45 17.604Z"
              fill="#B85C38"
            />
            <path
              d="M35 44.8335V47.5499C47.35 48.3015 55 51.7208 55 54.1651C55 56.9262 45.2612 60.9359 30 60.9359C14.7387 60.9359 5 56.9276 5 54.1664C5 51.7208 12.65 48.3015 25 47.5513V44.8348C13.155 45.5295 2.5 48.7051 2.5 54.1664C2.5 60.3902 16.3337 63.6456 30 63.6456C43.6662 63.6456 57.5 60.3902 57.5 54.1664C57.5 48.7051 46.845 45.5295 35 44.8335Z"
              fill="#B85C38"
            />
          </svg>