<svg
            width="60"
            height="57"
            viewBox="0 0 60 57"
            fill="none"
            xmlns="http://www.w3.org/2000/svg"
            class="svg"
          >
            <path
              d="M57.5 24.9375C57.1685 24.9375 56.8505 24.8124 56.6161 24.5897C56.3817 24.367 56.25 24.0649 56.25 23.75C56.2437 18.3978 54.0029 13.2665 50.0191 9.48188C46.0353 5.69728 40.6339 3.56847 35 3.5625C34.6685 3.5625 34.3505 3.43739 34.1161 3.21469C33.8817 2.99199 33.75 2.68994 33.75 2.375C33.75 2.06006 33.8817 1.75801 34.1161 1.53531C34.3505 1.31261 34.6685 1.1875 35 1.1875C41.2968 1.1941 47.3336 3.57333 51.7861 7.80319C56.2386 12.0331 58.7431 17.7681 58.75 23.75C58.75 24.0649 58.6183 24.367 58.3839 24.5897C58.1495 24.8124 57.8315 24.9375 57.5 24.9375Z"
              fill="#B85C38"
            />
            <path
              d="M47.5 24.9375C47.1685 24.9375 46.8505 24.8124 46.6161 24.5897C46.3817 24.367 46.25 24.0649 46.25 23.75C46.2467 20.9165 45.0604 18.1999 42.9513 16.1963C40.8422 14.1927 37.9827 13.0656 35 13.0625C34.6685 13.0625 34.3505 12.9374 34.1161 12.7147C33.8817 12.492 33.75 12.1899 33.75 11.875C33.75 11.5601 33.8817 11.258 34.1161 11.0353C34.3505 10.8126 34.6685 10.6875 35 10.6875C38.6454 10.6916 42.1403 12.0691 44.718 14.5179C47.2957 16.9667 48.7457 20.2869 48.75 23.75C48.75 24.0649 48.6183 24.367 48.3839 24.5897C48.1495 24.8124 47.8315 24.9375 47.5 24.9375Z"
              fill="#B85C38"
            />
            <path
              d="M39.22 34.6453L34.7375 39.9688C27.7951 36.0927 22.0094 30.5967 17.9288 24.0017L23.5325 19.7433C24.1889 19.2438 24.6528 18.5518 24.8518 17.7755C25.0508 16.9991 24.9737 16.1821 24.6325 15.4517L19.5238 4.52672C19.1578 3.74289 18.5105 3.10813 17.6974 2.73574C16.8844 2.36335 15.9585 2.27757 15.085 2.49372L5.3625 4.88653C4.45535 5.11207 3.6667 5.64573 3.14587 6.38651C2.62503 7.12728 2.40814 8.02375 2.53625 8.90622C4.24346 20.4487 9.85933 31.1497 18.5351 39.3916C27.2109 47.6336 38.475 52.9687 50.625 54.5905C51.5535 54.7127 52.4969 54.507 53.2764 54.0123C54.0558 53.5176 54.6171 52.7684 54.8538 51.9068L57.375 42.6692C57.602 41.8394 57.5115 40.96 57.1195 40.1877C56.7276 39.4155 56.0598 38.8005 55.235 38.4524L43.7375 33.6062C42.9694 33.2812 42.1097 33.2069 41.2925 33.3949C40.4753 33.5829 39.7466 34.0225 39.22 34.6453Z"
              fill="#B85C38"
            />
          </svg>