<svg
          class="svg telegram"
          width="62"
          height="65"
          viewBox="0 0 62 65"
          fill="none"
          xmlns="http://www.w3.org/2000/svg"
        >
          <rect width="62" height="65" fill="#2D4EC1" />
          <path
            fill-rule="evenodd"
            clip-rule="evenodd"
            d="M31 4.0625C16.0192 4.0625 3.875 16.7944 3.875 32.5C3.875 48.2056 16.0192 60.9375 31 60.9375C45.9808 60.9375 58.125 48.2056 58.125 32.5C58.125 16.7944 45.9808 4.0625 31 4.0625ZM43.5724 23.402C43.1636 27.8992 41.3986 38.8111 40.4996 43.8466C40.1198 45.9773 39.37 46.6923 38.6454 46.7614C37.0702 46.9137 35.8748 45.6706 34.348 44.6225C31.961 42.9813 30.6125 41.9595 28.2952 40.3589C25.6176 38.5084 27.3536 37.4908 28.8804 35.8292C29.2795 35.3945 36.2196 28.7767 36.3553 28.1755C36.3727 28.1003 36.3882 27.82 36.2293 27.6717C36.0704 27.5234 35.836 27.5742 35.6674 27.6148C35.4272 27.6717 31.6142 30.3144 24.2265 35.5428C23.1434 36.3228 22.1631 36.7027 21.2854 36.6823C20.3166 36.66 18.4547 36.1075 17.0694 35.6363C15.3702 35.0573 14.0197 34.7506 14.1379 33.7675C14.1999 33.2556 14.8722 32.7316 16.1568 32.1973C24.0637 28.5858 29.3376 26.2052 31.9746 25.0534C39.5076 21.7689 41.0731 21.1981 42.0922 21.1798C42.3169 21.1758 42.8187 21.2347 43.1442 21.5109C43.4194 21.7445 43.4949 22.0594 43.5298 22.2808C43.5666 22.5022 43.6112 23.0059 43.5744 23.4L43.5724 23.402Z"
            fill="#EAEAEA"
          />
        </svg>